<?xml version='1.0' encoding='UTF-8' standalone='no'?>
<!-- Created with Fritzing (http://www.fritzing.org/) -->
<svg xmlns="http://www.w3.org/2000/svg" width="0.393701in" x="0in" version="1.2" y="0in"  height="0.621729in" viewBox="0 0 28.3465 44.7645" baseProfile="tiny" xmlns:svg="http://www.w3.org/2000/svg">
 <g partID="18258941">
  <g gorn="0.1.2"  id="silkscreen">
   <circle fill="white" cx="16.5474"  cy="18.0583" r="0.93529"/>
   <path fill="white"  d="M16.4035,20.5044l1.87058,-1.87058,0,1.00724,-0.863344,0.863344,3.09365,0,0,-0.431672,0.719454,0,0,1.15113,-4.53256,0,-9.64068,0,0,-1.15113,0.719454,0,0,0.431672,8.63344,0zm3.23754,-3.23754l0.863344,-0.863344,0,-0.863344,0.719454,0,0,1.15113,0,0.575563,-1.5828,0zm0.863344,-4.53256l0,-1.72669,0.719454,0,0,1.72669,-0.719454,0zm0,-4.53256l0,-0.431672,-12.7343,0,0,0.431672,-0.719454,0,0,-1.15113,14.1732,0,0,1.15113,-0.719454,0zm-12.7343,2.80587l0,1.72669,-0.719454,0,0,-1.72669,0.719454,0zm0,4.53256l0,1.72669,-0.719454,0,0,-1.72669,0.719454,0z"/>
  </g>
 </g>
</svg>
