<?xml version='1.0' encoding='UTF-8' standalone='no'?>
<!-- Created with Fritzing (http://www.fritzing.org/) -->
<svg xmlns:svg='http://www.w3.org/2000/svg' xmlns='http://www.w3.org/2000/svg' version='1.2' baseProfile='tiny' x='0in' y='0in' width='1.15149in' height='2.19928in' viewBox='0 0 82.9073 158.348' >
<g partID='10390000'><g transform='translate(82.9073,158.348)' ><g transform='matrix(-1,0,0,-1,0,0)'  ><g transform="matrix(1, 0, 0, 1, 7.50155, 4.1731)">
 <g  id="board">
  <g >
   <polygon  id="boardoutline" points="50.0103,40.0005,63.013,40.0005,64.0132,41.0005,64.0132,143.002,63.013,144.002,53.011,144.002,52.0108,143.002,52.0108,121.002,51.0106,120.002,25.0052,120.002,24.005,121.002,24.005,143.002,23.0048,144.002,12.0025,144.002,11.0023,143.002,11.0023,41.0005,12.0025,40.0005,23.5049,40.0005,24.5051,39.0005,24.5051,18.0002,25.5053,16.0002,48.0099,16.0002,49.0101,18.0002,49.0101,39.0005" fill="#338040"/>
  </g>
 </g>
</g>
</g></g></g><g partID='854182040'><g transform='translate(12.7902,94.8557)' ><g xmlns="http://www.w3.org/2000/svg" id="copper0">
 <circle xmlns="http://www.w3.org/2000/svg" stroke-width="0.850392" r="0.992124" stroke="#f9a435" id="connector0pin" fill="none" cx="3.01733" cy="3.01733"/>
</g>
</g></g><g partID='854183440'><g transform='translate(18.1444,42.7093)' ><g xmlns="http://www.w3.org/2000/svg" id="copper0">
 <circle xmlns="http://www.w3.org/2000/svg" stroke-width="0.850392" r="0.992124" stroke="#f9a435" id="connector0pin" fill="none" cx="3.01733" cy="3.01733"/>
</g>
</g></g><g partID='854178020'><g transform='translate(43.722,73.3765)' ><g xmlns="http://www.w3.org/2000/svg" id="copper0">
 <circle xmlns="http://www.w3.org/2000/svg" stroke-width="0.850392" r="0.992124" stroke="#f9a435" id="connector0pin" fill="none" cx="3.01733" cy="3.01733"/>
</g>
</g></g><g partID='854181100'><g transform='translate(14.1297,17.2758)' ><g xmlns="http://www.w3.org/2000/svg" id="copper0">
<rect stroke-width="0" fill-opacity="1" xmlns="http://www.w3.org/2000/svg" id="connector0pad" stroke="none" fill="#f9a435" x="1.6" y="1.6" height="10.4882" width="5.66929"/>
<g stroke-width="0" xmlns="http://www.w3.org/2000/svg" id="connector0terminal" stroke="none" fill="none" x="1.6" y="1.6" height="10.4882" width="5.66929"/>
</g>
</g></g><g partID='854181110'><g transform='translate(52.2196,18.0318)' ><g xmlns="http://www.w3.org/2000/svg" id="copper0">
<rect stroke-width="0" fill-opacity="1" xmlns="http://www.w3.org/2000/svg" id="connector0pad" stroke="none" fill="#f9a435" x="1.6" y="1.6" height="10.4882" width="5.66929"/>
<g stroke-width="0" xmlns="http://www.w3.org/2000/svg" id="connector0terminal" stroke="none" fill="none" x="1.6" y="1.6" height="10.4882" width="5.66929"/>
</g>
</g></g><g partID='10390070'><g transform='translate(45.8292,109.868)' ><g transform='matrix(0,-1,1,0,0,0)'  ><g xmlns="http://www.w3.org/2000/svg" id="copper0">
 <rect xmlns="http://www.w3.org/2000/svg" stroke-width="1.44" id="square" stroke="rgb(255, 191, 0)" fill="none" x="2.952" height="4.176" y="2.952" width="4.176"/>
 <circle xmlns="http://www.w3.org/2000/svg" stroke-width="1.44" r="2.088" id="connector0pin" stroke="rgb(255, 191, 0)" fill="none" cx="5.04" cy="5.04"/>
 <circle xmlns="http://www.w3.org/2000/svg" stroke-width="1.44" r="2.088" id="connector1pin" stroke="rgb(255, 191, 0)" fill="none" cx="5.04" cy="12.24"/>
</g>
</g></g></g><g partID='10390160'><g transform='translate(12.0188,109.824)' ><g transform='matrix(0,-1,1,0,0,0)'  ><g xmlns="http://www.w3.org/2000/svg" id="copper0">
 <rect xmlns="http://www.w3.org/2000/svg" stroke-width="1.44" id="square" stroke="rgb(255, 191, 0)" fill="none" x="2.952" height="4.176" y="2.952" width="4.176"/>
 <circle xmlns="http://www.w3.org/2000/svg" stroke-width="1.44" r="2.088" id="connector0pin" stroke="rgb(255, 191, 0)" fill="none" cx="5.04" cy="5.04"/>
 <circle xmlns="http://www.w3.org/2000/svg" stroke-width="1.44" r="2.088" id="connector1pin" stroke="rgb(255, 191, 0)" fill="none" cx="5.04" cy="12.24"/>
</g>
</g></g></g><g partID='10392520'><g transform='translate(63.082,33.7356)' ><g transform='matrix(0,1,-1,0,0,0)'  ><g xmlns="http://www.w3.org/2000/svg" id="copper0">
 <rect xmlns="http://www.w3.org/2000/svg" stroke-width="1.44" id="square" stroke="rgb(255, 191, 0)" fill="none" x="2.952" height="4.176" y="2.952" width="4.176"/>
 <circle xmlns="http://www.w3.org/2000/svg" stroke-width="1.44" r="2.088" id="connector0pin" stroke="rgb(255, 191, 0)" fill="none" cx="5.04" cy="5.04"/>
 <circle xmlns="http://www.w3.org/2000/svg" stroke-width="1.44" r="2.088" id="connector1pin" stroke="rgb(255, 191, 0)" fill="none" cx="5.04" cy="12.24"/>
</g>
</g></g></g><g partID='10392790'><g transform='translate(30.3905,34.09)' ><g transform='matrix(0,1,-1,0,0,0)'  ><g xmlns="http://www.w3.org/2000/svg" id="copper0">
 <rect xmlns="http://www.w3.org/2000/svg" stroke-width="1.44" id="square" stroke="rgb(255, 191, 0)" fill="none" x="2.952" height="4.176" y="2.952" width="4.176"/>
 <circle xmlns="http://www.w3.org/2000/svg" stroke-width="1.44" r="2.088" id="connector0pin" stroke="rgb(255, 191, 0)" fill="none" cx="5.04" cy="5.04"/>
 <circle xmlns="http://www.w3.org/2000/svg" stroke-width="1.44" r="2.088" id="connector1pin" stroke="rgb(255, 191, 0)" fill="none" cx="5.04" cy="12.24"/>
</g>
</g></g></g><g partID='10397240'><g transform='translate(32.8452,118.488)' ><g xmlns="http://www.w3.org/2000/svg" id="copper0">
 <circle xmlns="http://www.w3.org/2000/svg" stroke-width="0" r="4.53543" stroke="#f9a435" id="nonconn0" fill="black" cx="6.13543" cy="6.13543"/>
</g>
</g></g><g partID='10630100'><g transform='translate(32.0692,41.2997)' ><g xmlns="http://www.w3.org/2000/svg" id="copper0">
 <circle xmlns="http://www.w3.org/2000/svg" stroke-width="0" r="4.53543" stroke="#f9a435" id="nonconn0" fill="black" cx="6.13543" cy="6.13543"/>
</g>
</g></g><g partID='18313960'><g transform='translate(24.782,87.7533)' ><g transform='matrix(0,-1,1,0,0,0)'  ><g xmlns="http://www.w3.org/2000/svg" id="copper0">
 <rect xmlns="http://www.w3.org/2000/svg" stroke-width="1.44" id="square" stroke="rgb(255, 191, 0)" fill="none" x="2.952" height="4.176" y="2.952" width="4.176"/>
 <circle xmlns="http://www.w3.org/2000/svg" stroke-width="1.44" r="2.088" id="connector0pin" stroke="rgb(255, 191, 0)" fill="none" cx="5.04" cy="5.04"/>
 <circle xmlns="http://www.w3.org/2000/svg" stroke-width="1.44" r="2.088" id="connector1pin" stroke="rgb(255, 191, 0)" fill="none" cx="5.04" cy="12.24"/>
 <circle xmlns="http://www.w3.org/2000/svg" stroke-width="1.44" r="2.088" id="connector2pin" stroke="rgb(255, 191, 0)" fill="none" cx="5.04" cy="19.44"/>
</g>
</g></g></g><g partID='18316690'><g transform='translate(38.5836,73.3093)' ><g xmlns="http://www.w3.org/2000/svg" id="copper0">
 <circle xmlns="http://www.w3.org/2000/svg" stroke-width="0.850392" r="0.992124" stroke="#f9a435" id="connector0pin" fill="none" cx="3.01733" cy="3.01733"/>
</g>
</g></g><g partID='854182100'><line stroke-linecap='round' stroke='#f28a00' x1='16.0419' y1='43.9549' x2='15.8134' y2='96.506' stroke-width='1.728' /></g><g partID='854181910'><line stroke-linecap='round' stroke='#f28a00' x1='17.2824' y1='41.1167' x2='16.0419' y2='43.9553' stroke-width='1.728' /></g><g partID='854182250'><line stroke-linecap='round' stroke='#f28a00' x1='16.2276' y1='97.0024' x2='25.419' y2='77.947' stroke-width='1.152' /></g><g partID='854182550'><line stroke-linecap='round' stroke='#f28a00' x1='25.4188' y1='77.9469' x2='33.1549' y2='77.7125' stroke-width='1.152' /></g><g partID='854182400'><line stroke-linecap='round' stroke='#f28a00' x1='33.1548' y1='77.7125' x2='35.9402' y2='81.3146' stroke-width='1.152' /></g><g partID='854177640'><line stroke-linecap='round' stroke='#f28a00' x1='44.8763' y1='81.0708' x2='46.3815' y2='77.2921' stroke-width='1.152' /></g><g partID='18039710'><line stroke-linecap='round' stroke='#f28a00' x1='60.5828' y1='99.2797' x2='60.5828' y2='44.424' stroke-width='1.728' /></g><g partID='18039560'><line stroke-linecap='round' stroke='#f28a00' x1='60.5828' y1='44.4237' x2='58.9313' y2='40.7524' stroke-width='1.728' /></g><g partID='10393560'><line stroke-linecap='round' stroke='#f28a00' x1='58.9639' y1='102.853' x2='60.5829' y2='99.2797' stroke-width='1.728' /></g><g partID='18040050'><line stroke-linecap='round' stroke='#f28a00' x1='53.342' y1='53.0989' x2='51.2149' y2='40.9112' stroke-width='1.728' /></g><g partID='18039860'><line stroke-linecap='round' stroke='#f28a00' x1='53.0636' y1='98.1773' x2='53.3419' y2='53.099' stroke-width='1.728' /></g><g partID='10393650'><line stroke-linecap='round' stroke='#f28a00' x1='51.5485' y1='102.769' x2='53.0636' y2='98.1773' stroke-width='1.728' /></g><g partID='18315890'><line stroke-linecap='round' stroke='#f28a00' x1='38.0522' y1='81.2764' x2='41.0375' y2='77.1124' stroke-width='1.152' /></g><g partID='18319040'><line stroke-linecap='round' stroke='#f28a00' x1='25.182' y1='87.8333' x2='28.3661' y2='84.3197' stroke-width='1.728' /></g><g partID='18318890'><line stroke-linecap='round' stroke='#f28a00' x1='25.342' y1='99.0333' x2='25.182' y2='87.8333' stroke-width='1.728' /></g><g partID='18318740'><line stroke-linecap='round' stroke='#f28a00' x1='48.755' y1='104.348' x2='25.342' y2='99.0333' stroke-width='1.728' /></g><g partID='854182041'><g transform='translate(12.7902,94.8557)' ><g xmlns="http://www.w3.org/2000/svg" id="copper1">
 <circle xmlns="http://www.w3.org/2000/svg" stroke-width="0.850392" r="0.992124" stroke="#fdde68" id="connector0pin" fill="none" cx="3.01733" cy="3.01733"/>
</g>
</g></g><g partID='854183441'><g transform='translate(18.1444,42.7093)' ><g xmlns="http://www.w3.org/2000/svg" id="copper1">
 <circle xmlns="http://www.w3.org/2000/svg" stroke-width="0.850392" r="0.992124" stroke="#fdde68" id="connector0pin" fill="none" cx="3.01733" cy="3.01733"/>
</g>
</g></g><g partID='854178021'><g transform='translate(43.722,73.3765)' ><g xmlns="http://www.w3.org/2000/svg" id="copper1">
 <circle xmlns="http://www.w3.org/2000/svg" stroke-width="0.850392" r="0.992124" stroke="#fdde68" id="connector0pin" fill="none" cx="3.01733" cy="3.01733"/>
</g>
</g></g><g partID='10390072'><g transform='translate(45.8292,109.868)' ><g transform='matrix(0,-1,1,0,0,0)'  ><g xmlns="http://www.w3.org/2000/svg" id="copper1">
 <g xmlns="http://www.w3.org/2000/svg" id="copper0">
  <rect xmlns="http://www.w3.org/2000/svg" stroke-width="1.44" id="square" stroke="rgb(255, 191, 0)" fill="none" x="2.952" height="4.176" y="2.952" width="4.176"/>
  <circle xmlns="http://www.w3.org/2000/svg" stroke-width="1.44" r="2.088" id="connector0pin" stroke="rgb(255, 191, 0)" fill="none" cx="5.04" cy="5.04"/>
  <circle xmlns="http://www.w3.org/2000/svg" stroke-width="1.44" r="2.088" id="connector1pin" stroke="rgb(255, 191, 0)" fill="none" cx="5.04" cy="12.24"/>
 </g>
</g>
</g></g></g><g partID='10390162'><g transform='translate(12.0188,109.824)' ><g transform='matrix(0,-1,1,0,0,0)'  ><g xmlns="http://www.w3.org/2000/svg" id="copper1">
 <g xmlns="http://www.w3.org/2000/svg" id="copper0">
  <rect xmlns="http://www.w3.org/2000/svg" stroke-width="1.44" id="square" stroke="rgb(255, 191, 0)" fill="none" x="2.952" height="4.176" y="2.952" width="4.176"/>
  <circle xmlns="http://www.w3.org/2000/svg" stroke-width="1.44" r="2.088" id="connector0pin" stroke="rgb(255, 191, 0)" fill="none" cx="5.04" cy="5.04"/>
  <circle xmlns="http://www.w3.org/2000/svg" stroke-width="1.44" r="2.088" id="connector1pin" stroke="rgb(255, 191, 0)" fill="none" cx="5.04" cy="12.24"/>
 </g>
</g>
</g></g></g><g partID='10392522'><g transform='translate(63.082,33.7356)' ><g transform='matrix(0,1,-1,0,0,0)'  ><g xmlns="http://www.w3.org/2000/svg" id="copper1">
 <g xmlns="http://www.w3.org/2000/svg" id="copper0">
  <rect xmlns="http://www.w3.org/2000/svg" stroke-width="1.44" id="square" stroke="rgb(255, 191, 0)" fill="none" x="2.952" height="4.176" y="2.952" width="4.176"/>
  <circle xmlns="http://www.w3.org/2000/svg" stroke-width="1.44" r="2.088" id="connector0pin" stroke="rgb(255, 191, 0)" fill="none" cx="5.04" cy="5.04"/>
  <circle xmlns="http://www.w3.org/2000/svg" stroke-width="1.44" r="2.088" id="connector1pin" stroke="rgb(255, 191, 0)" fill="none" cx="5.04" cy="12.24"/>
 </g>
</g>
</g></g></g><g partID='10392792'><g transform='translate(30.3905,34.09)' ><g transform='matrix(0,1,-1,0,0,0)'  ><g xmlns="http://www.w3.org/2000/svg" id="copper1">
 <g xmlns="http://www.w3.org/2000/svg" id="copper0">
  <rect xmlns="http://www.w3.org/2000/svg" stroke-width="1.44" id="square" stroke="rgb(255, 191, 0)" fill="none" x="2.952" height="4.176" y="2.952" width="4.176"/>
  <circle xmlns="http://www.w3.org/2000/svg" stroke-width="1.44" r="2.088" id="connector0pin" stroke="rgb(255, 191, 0)" fill="none" cx="5.04" cy="5.04"/>
  <circle xmlns="http://www.w3.org/2000/svg" stroke-width="1.44" r="2.088" id="connector1pin" stroke="rgb(255, 191, 0)" fill="none" cx="5.04" cy="12.24"/>
 </g>
</g>
</g></g></g><g partID='10504000'><g transform='translate(45.2044,89.1589)' ><g transform='matrix(1,0,0,1,0,0)'  ><g xmlns="http://www.w3.org/2000/svg" id="copper1">
 <rect xmlns="http://www.w3.org/2000/svg" stroke-width="0" fill-opacity="1" id="connector0pad" stroke="none" fill="#f7bf13" x="0.566929" height="4.25197" y="0.566929" width="3.9685"/>
 <rect xmlns="http://www.w3.org/2000/svg" stroke-width="0" fill-opacity="1" id="connector1pad" stroke="none" fill="#f7bf13" x="6.37795" height="4.25197" y="0.566929" width="3.9685"/>
</g>
</g></g></g><g partID='10397241'><g transform='translate(32.8452,118.488)' ><g xmlns="http://www.w3.org/2000/svg" id="copper1">
 <circle xmlns="http://www.w3.org/2000/svg" stroke-width="0" r="4.53543" stroke="#fdde68" id="nonconn0" fill="black" cx="6.13543" cy="6.13543"/>
</g>
</g></g><g partID='18314490'><g transform='translate(55.1324,73.7311)' ><g transform='matrix(0,1,-1,0,0,0)'  ><g xmlns="http://www.w3.org/2000/svg" id="copper1">
<rect fill-opacity="1" xmlns="http://www.w3.org/2000/svg" id="connector0pad" stroke="none" fill="#f7bf13" x="0.566929" height="4.25197" y="0.566929" width="3.9685"/>
<rect fill-opacity="1" xmlns="http://www.w3.org/2000/svg" id="connector1pad" stroke="none" fill="#f7bf13" x="6.37795" height="4.25197" y="0.566929" width="3.9685"/>
</g>
</g></g></g><g partID='10504490'><g transform='translate(31.3572,89.0741)' ><g transform='matrix(1,0,0,1,0,0)'  ><g xmlns="http://www.w3.org/2000/svg" id="copper1">
<rect fill-opacity="1" xmlns="http://www.w3.org/2000/svg" id="connector0pad" stroke="none" fill="#f7bf13" x="0.566929" height="4.25197" y="0.566929" width="3.9685"/>
<rect fill-opacity="1" xmlns="http://www.w3.org/2000/svg" id="connector1pad" stroke="none" fill="#f7bf13" x="6.37795" height="4.25197" y="0.566929" width="3.9685"/>
</g>
</g></g></g><g partID='10630101'><g transform='translate(32.0692,41.2997)' ><g xmlns="http://www.w3.org/2000/svg" id="copper1">
 <circle xmlns="http://www.w3.org/2000/svg" stroke-width="0" r="4.53543" stroke="#fdde68" id="nonconn0" fill="black" cx="6.13543" cy="6.13543"/>
</g>
</g></g><g partID='18313962'><g transform='translate(24.782,87.7533)' ><g transform='matrix(0,-1,1,0,0,0)'  ><g xmlns="http://www.w3.org/2000/svg" id="copper1">
 <g xmlns="http://www.w3.org/2000/svg" id="copper0">
  <rect xmlns="http://www.w3.org/2000/svg" stroke-width="1.44" id="square" stroke="rgb(255, 191, 0)" fill="none" x="2.952" height="4.176" y="2.952" width="4.176"/>
  <circle xmlns="http://www.w3.org/2000/svg" stroke-width="1.44" r="2.088" id="connector0pin" stroke="rgb(255, 191, 0)" fill="none" cx="5.04" cy="5.04"/>
  <circle xmlns="http://www.w3.org/2000/svg" stroke-width="1.44" r="2.088" id="connector1pin" stroke="rgb(255, 191, 0)" fill="none" cx="5.04" cy="12.24"/>
  <circle xmlns="http://www.w3.org/2000/svg" stroke-width="1.44" r="2.088" id="connector2pin" stroke="rgb(255, 191, 0)" fill="none" cx="5.04" cy="19.44"/>
 </g>
</g>
</g></g></g><g partID='18316691'><g transform='translate(38.5836,73.3093)' ><g xmlns="http://www.w3.org/2000/svg" id="copper1">
 <circle xmlns="http://www.w3.org/2000/svg" stroke-width="0.850392" r="0.992124" stroke="#fdde68" id="connector0pin" fill="none" cx="3.01733" cy="3.01733"/>
</g>
</g></g><g partID='854181980'><line stroke-linecap='round' stroke='#f2c600' x1='16.051' y1='99.2183' x2='16.6726' y2='102.651' stroke-width='1.728' /></g><g partID='854184240'><line stroke-linecap='round' stroke='#f2c600' x1='19.4773' y1='43.8829' x2='16.3391' y2='43.978' stroke-width='1.152' /></g><g partID='854184170'><line stroke-linecap='round' stroke='#f2c600' x1='16.3391' y1='43.9781' x2='15.0078' y2='47.2113' stroke-width='1.152' /></g><g partID='854184060'><line stroke-linecap='round' stroke='#f2c600' x1='20.5354' y1='99.6445' x2='23.2216' y2='103.352' stroke-width='1.152' /></g><g partID='854183500'><line stroke-linecap='round' stroke='#f2c600' x1='15.0078' y1='47.2109' x2='15.5691' y2='92.4294' stroke-width='1.152' /></g><g partID='854183370'><line stroke-linecap='round' stroke='#f2c600' x1='20.5095' y1='45.013' x2='19.4773' y2='43.8829' stroke-width='1.152' /></g><g partID='854183300'><line stroke-linecap='round' stroke='#f2c600' x1='20.5354' y1='97.3957' x2='20.5354' y2='99.6446' stroke-width='1.152' /></g><g partID='854182970'><line stroke-linecap='round' stroke='#f2c600' x1='15.569' y1='92.4293' x2='20.5353' y2='97.3956' stroke-width='1.152' /></g><g partID='854182900'><line stroke-linecap='round' stroke='#f2c600' x1='24.1887' y1='40.9603' x2='21.8948' y2='44.5729' stroke-width='1.728' /></g><g partID='854178350'><line stroke-linecap='round' stroke='#f2c600' x1='44.2828' y1='73.0429' x2='48.6388' y2='73.0429' stroke-width='1.152' /></g><g partID='854178200'><line stroke-linecap='round' stroke='#f2c600' x1='48.6388' y1='73.0429' x2='50.7135' y2='74.8112' stroke-width='1.152' /></g><g partID='854177830'><line stroke-linecap='round' stroke='#f2c600' x1='47.4234' y1='77.0778' x2='50.8551' y2='80.5091' stroke-width='1.152' /></g><g partID='854176010'><line stroke-linecap='round' stroke='#f2c600' x1='42.2128' y1='75.5779' x2='44.2827' y2='73.0429' stroke-width='1.152' /></g><g partID='10504970'><line stroke-linecap='round' stroke='#f2c600' x1='41.3037' y1='91.7844' x2='46.1714' y2='91.8357' stroke-width='1.728' /></g><g partID='10505260'><line stroke-linecap='round' stroke='#f2c600' x1='60.7316' y1='91.9669' x2='55.1509' y2='91.8775' stroke-width='1.152' /></g><g partID='854174790'><line stroke-linecap='round' stroke='#f2c600' x1='60.6644' y1='100.789' x2='60.7323' y2='91.9665' stroke-width='1.152' /></g><g partID='10505270'><line stroke-linecap='round' stroke='#f2c600' x1='59.025' y1='103.34' x2='60.6644' y2='100.789' stroke-width='1.152' /></g><g partID='18313990'><line stroke-linecap='round' stroke='#f2c600' x1='48.9149' y1='103.889' x2='34.142' y2='96.7933' stroke-width='1.728' /></g><g partID='18314690'><line stroke-linecap='round' stroke='#f2c600' x1='34.142' y1='96.7933' x2='33.9886' y2='93.493' stroke-width='1.728' /></g><g partID='854177180'><line stroke-linecap='round' stroke='#f2c600' x1='61.0364' y1='88.7917' x2='60.7322' y2='100.79' stroke-width='1.152' /></g><g partID='854174250'><line stroke-linecap='round' stroke='#f2c600' x1='59.8076' y1='83.4301' x2='61.0362' y2='88.7913' stroke-width='1.152' /></g><g partID='854174060'><line stroke-linecap='round' stroke='#f2c600' x1='60.7324' y1='100.79' x2='59.0428' y2='103.352' stroke-width='1.152' /></g><g partID='18315740'><line stroke-linecap='round' stroke='#f2c600' x1='54.1655' y1='82.4064' x2='59.8077' y2='83.4298' stroke-width='1.152' /></g><g partID='10390001'><g transform='translate(82.9073,158.348)' ><g transform='matrix(-1,0,0,-1,0,0)'  ><g  id="silkscreen">
 <g transform="matrix(0, 1, -1, 0, 133.028, -3.00004)">
  <g >
   <text  font-size="3.50072" id="text3607" stroke="none" fill="#FFFFFF" x="68.0141" y="65.0008">(c) 2013 clixx.io</text>
  </g>
 </g>
</g>
</g></g></g><g partID='18034260'><g transform='translate(12.7159,53.7253)' ><g xmlns="http://www.w3.org/2000/svg" id="silkscreen">
 <polygon xmlns="http://www.w3.org/2000/svg" stroke-width="0" stroke="none" points="5.15401,0,5.15401,0.147258,4.8595,0.147258,4.8595,0.294515,4.71224,0.294515,4.71224,0.441773,4.56498,0.441773,4.56498,0.58903,4.41773,0.58903,4.41773,0.736288,4.27047,0.736288,4.27047,0.883545,6.03756,0.883545,6.03756,1.0308,6.33207,1.0308,6.33207,1.17806,6.47933,1.17806,6.47933,1.32532,6.62659,1.32532,6.62659,1.76709,6.77385,1.76709,6.77385,2.20886,5.8903,2.20886,5.8903,6.18482,5.74304,6.18482,5.74304,6.62659,5.59579,6.62659,5.59579,6.77385,5.30127,6.77385,5.30127,6.9211,5.00676,6.9211,5.00676,7.06836,4.8595,7.06836,4.8595,7.21562,4.71224,7.21562,4.71224,7.36288,4.56498,7.36288,4.56498,7.51013,4.41773,7.51013,4.41773,7.65739,4.27047,7.65739,4.27047,7.80465,4.12321,7.80465,4.12321,8.24642,3.97595,8.24642,3.97595,8.54094,8.98271,8.54094,8.98271,7.65739,8.83545,7.65739,8.83545,7.21562,8.68819,7.21562,8.68819,6.9211,8.54094,6.9211,8.54094,6.62659,8.39368,6.62659,8.39368,6.47933,8.24642,6.47933,8.24642,6.33207,8.09916,6.33207,8.09916,6.18482,7.95191,6.18482,7.95191,6.03756,7.80465,6.03756,7.80465,5.00676,8.68819,5.00676,8.68819,4.8595,8.98271,4.8595,8.98271,4.56498,9.12997,4.56498,9.12997,4.27047,8.98271,4.27047,8.98271,3.97595,7.80465,3.97595,7.80465,3.23967,8.68819,3.23967,8.68819,3.09241,8.98271,3.09241,8.98271,2.79789,9.12997,2.79789,9.12997,2.50338,8.98271,2.50338,8.98271,2.20886,7.80465,2.20886,7.80465,1.76709,7.65739,1.76709,7.65739,1.0308,7.51013,1.0308,7.51013,0.736288,7.36288,0.736288,7.36288,0.58903,7.21562,0.58903,7.21562,0.441773,7.06836,0.441773,7.06836,0.294515,6.9211,0.294515,6.9211,0.147258,6.62659,0.147258,6.62659,0" fill="#ffffff"/>
 <polygon xmlns="http://www.w3.org/2000/svg" stroke-width="0" stroke="none" points="4.27047,0.883545,4.27047,1.0308,4.12321,1.0308,4.12321,5.8903,3.97595,5.8903,3.97595,6.03756,3.8287,6.03756,3.8287,6.18482,3.68144,6.18482,3.68144,6.33207,3.53418,6.33207,3.53418,6.47933,3.38692,6.47933,3.38692,6.62659,3.23967,6.62659,3.23967,6.9211,3.09241,6.9211,3.09241,7.21562,2.94515,7.21562,2.94515,7.65739,2.79789,7.65739,2.79789,8.54094,3.8287,8.54094,3.8287,7.65739,3.97595,7.65739,3.97595,7.36288,4.12321,7.36288,4.12321,7.21562,4.27047,7.21562,4.27047,6.9211,4.41773,6.9211,4.41773,6.77385,4.71224,6.77385,4.71224,6.62659,4.8595,6.62659,4.8595,6.47933,5.00676,6.47933,5.00676,6.18482,5.15401,6.18482,5.15401,1.32532,5.30127,1.32532,5.30127,1.17806,5.44853,1.17806,5.44853,1.0308,5.74304,1.0308,5.74304,0.883545" fill="#ffffff"/>
 <polygon xmlns="http://www.w3.org/2000/svg" stroke-width="0" stroke="none" points="2.79789,8.54094,2.79789,8.68819,8.98271,8.68819,8.98271,8.54094" fill="#ffffff"/>
 <polygon xmlns="http://www.w3.org/2000/svg" stroke-width="0" stroke="none" points="2.79789,8.54094,2.79789,8.68819,8.98271,8.68819,8.98271,8.54094" fill="#ffffff"/>
 <polygon xmlns="http://www.w3.org/2000/svg" stroke-width="0" stroke="none" points="2.79789,8.68819,2.79789,9.12997,2.94515,9.12997,2.94515,9.57174,3.09241,9.57174,3.09241,9.86626,3.23967,9.86626,3.23967,10.1608,3.38692,10.1608,3.38692,10.308,3.53418,10.308,3.53418,10.4553,3.68144,10.4553,3.68144,10.6025,3.8287,10.6025,3.8287,10.7498,3.97595,10.7498,3.97595,10.8971,4.12321,10.8971,4.12321,11.0443,4.41773,11.0443,4.41773,11.1916,4.71224,11.1916,4.71224,11.3388,5.15401,11.3388,5.15401,11.4861,6.62659,11.4861,6.62659,11.3388,7.06836,11.3388,7.06836,11.1916,7.36288,11.1916,7.36288,11.0443,7.65739,11.0443,7.65739,10.8971,7.80465,10.8971,7.80465,10.7498,7.95191,10.7498,7.95191,10.6025,8.09916,10.6025,8.09916,10.4553,8.24642,10.4553,8.24642,10.308,8.39368,10.308,8.39368,10.1608,8.54094,10.1608,8.54094,9.86626,8.68819,9.86626,8.68819,9.57174,8.83545,9.57174,8.83545,9.12997,8.98271,9.12997,8.98271,8.68819" fill="#ffffff"/>
</g>
</g></g><g partID='10396970'><g transform='translate(29.7548,100.242)' ><g xmlns="http://www.w3.org/2000/svg" id="silkscreen">
 <polygon xmlns="http://www.w3.org/2000/svg" stroke-width="0" stroke="none" points="2.07768,1.28327,2.07768,1.5277,5.01087,1.5277,5.01087,1.4666,3.97203,1.4666,3.97203,1.40549,3.17762,1.40549,3.17762,1.34438,2.44433,1.34438,2.44433,1.28327" fill="#ffffff"/>
 <polygon xmlns="http://www.w3.org/2000/svg" stroke-width="0" stroke="none" points="9.22733,1.28327,9.22733,1.34438,8.79957,1.34438,8.79957,1.40549,8.37181,1.40549,8.37181,1.4666,11.6105,1.4666,11.6105,1.40549,11.1828,1.40549,11.1828,1.34438,10.6939,1.34438,10.6939,1.28327" fill="#ffffff"/>
 <polygon xmlns="http://www.w3.org/2000/svg" stroke-width="0" stroke="none" points="11.9772,1.40549,11.9772,1.4666,13.8715,1.4666,13.8715,1.40549" fill="#ffffff"/>
 <polygon xmlns="http://www.w3.org/2000/svg" stroke-width="0" stroke="none" points="5.80527,1.4666,5.80527,1.5277,13.8715,1.5277,13.8715,1.4666" fill="#ffffff"/>
 <polygon xmlns="http://www.w3.org/2000/svg" stroke-width="0" stroke="none" points="5.80527,1.4666,5.80527,1.5277,13.8715,1.5277,13.8715,1.4666" fill="#ffffff"/>
 <polygon xmlns="http://www.w3.org/2000/svg" stroke-width="0" stroke="none" points="2.07768,1.5277,2.07768,1.58881,13.8104,1.58881,13.8104,1.5277" fill="#ffffff"/>
 <polygon xmlns="http://www.w3.org/2000/svg" stroke-width="0" stroke="none" points="2.07768,1.5277,2.07768,1.58881,13.8104,1.58881,13.8104,1.5277" fill="#ffffff"/>
 <polygon xmlns="http://www.w3.org/2000/svg" stroke-width="0" stroke="none" points="2.07768,1.58881,2.07768,3.23873,10.5717,3.23873,10.5717,3.29984,10.8161,3.29984,10.8161,3.36095,10.9384,3.36095,10.9384,3.42206,11.0606,3.42206,11.0606,3.48317,11.1217,3.48317,11.1217,3.54427,11.1828,3.54427,11.1828,3.60538,11.2439,3.60538,11.2439,3.66649,11.305,3.66649,11.305,3.7276,11.3661,3.7276,11.3661,3.84982,11.4272,3.84982,11.4272,3.97203,11.4883,3.97203,11.4883,4.27757,11.5494,4.27757,11.5494,4.4609,11.4883,4.4609,11.4883,4.76644,11.4272,4.76644,11.4272,4.88865,11.3661,4.88865,11.3661,5.01087,11.305,5.01087,11.305,5.13309,11.2439,5.13309,11.2439,5.1942,11.1828,5.1942,11.1828,5.2553,11.0606,5.2553,11.0606,5.31641,10.9995,5.31641,10.9995,5.37752,10.8772,5.37752,10.8772,5.43863,10.755,5.43863,10.755,5.49974,13.8104,5.49974,13.8104,5.13309,13.7493,5.13309,13.7493,4.03314,13.6882,4.03314,13.6882,3.42206,13.6271,3.42206,13.6271,3.11652,13.566,3.11652,13.566,2.81098,13.5049,2.81098,13.5049,2.50544,13.566,2.50544,13.566,2.261,13.6271,2.261,13.6271,2.07768,13.6882,2.07768,13.6882,1.89435,13.7493,1.89435,13.7493,1.71103,13.8104,1.71103,13.8104,1.58881" fill="#ffffff"/>
 <polygon xmlns="http://www.w3.org/2000/svg" stroke-width="0" stroke="none" points="2.07768,3.23873,2.07768,5.49974,4.70533,5.49974,4.70533,5.43863,4.58311,5.43863,4.58311,5.37752,4.46089,5.37752,4.46089,5.31641,4.39979,5.31641,4.39979,5.2553,4.33868,5.2553,4.33868,5.1942,4.27757,5.1942,4.27757,5.13309,4.21646,5.13309,4.21646,5.07198,4.15535,5.07198,4.15535,5.01087,4.09424,5.01087,4.09424,4.88865,4.03314,4.88865,4.03314,4.76644,3.97203,4.76644,3.97203,4.03314,4.03314,4.03314,4.03314,3.91092,4.09424,3.91092,4.09424,3.78871,4.15535,3.78871,4.15535,3.66649,4.21646,3.66649,4.21646,3.60538,4.27757,3.60538,4.27757,3.54427,4.33868,3.54427,4.33868,3.48317,4.39979,3.48317,4.39979,3.42206,4.522,3.42206,4.522,3.36095,4.64422,3.36095,4.64422,3.29984,4.88865,3.29984,4.88865,3.23873" fill="#ffffff"/>
 <polygon xmlns="http://www.w3.org/2000/svg" stroke-width="0" stroke="none" points="5.31641,3.23873,5.31641,3.29984,5.49973,3.29984,5.49973,3.36095,5.62195,3.36095,5.62195,3.42206,5.74416,3.42206,5.74416,3.48317,5.80527,3.48317,5.80527,3.54427,5.86638,3.54427,5.86638,3.60538,5.92749,3.60538,5.92749,3.66649,5.9886,3.66649,5.9886,3.7276,6.0497,3.7276,6.0497,3.84982,6.11081,3.84982,6.11081,3.97203,6.17192,3.97203,6.17192,4.21646,6.23303,4.21646,6.23303,4.58311,6.17192,4.58311,6.17192,4.82755,6.11081,4.82755,6.11081,4.94976,6.0497,4.94976,6.0497,5.07198,5.9886,5.07198,5.9886,5.13309,5.92749,5.13309,5.92749,5.1942,5.86638,5.1942,5.86638,5.2553,5.80527,5.2553,5.80527,5.31641,5.68306,5.31641,5.68306,5.37752,5.62195,5.37752,5.62195,5.43863,5.43862,5.43863,5.43862,5.49974,10.0217,5.49974,10.0217,5.43863,9.89952,5.43863,9.89952,5.37752,9.7773,5.37752,9.7773,5.31641,9.71619,5.31641,9.71619,5.2553,9.59398,5.2553,9.59398,5.1942,9.53287,5.1942,9.53287,5.13309,9.47176,5.13309,9.47176,5.01087,9.41065,5.01087,9.41065,4.88865,9.34954,4.88865,9.34954,4.76644,9.28844,4.76644,9.28844,4.4609,9.22733,4.4609,9.22733,4.27757,9.28844,4.27757,9.28844,3.97203,9.34954,3.97203,9.34954,3.84982,9.41065,3.84982,9.41065,3.7276,9.47176,3.7276,9.47176,3.66649,9.53287,3.66649,9.53287,3.60538,9.59398,3.60538,9.59398,3.54427,9.65508,3.54427,9.65508,3.48317,9.71619,3.48317,9.71619,3.42206,9.83841,3.42206,9.83841,3.36095,9.96062,3.36095,9.96062,3.29984,10.2051,3.29984,10.2051,3.23873" fill="#ffffff"/>
 <polygon xmlns="http://www.w3.org/2000/svg" stroke-width="0" stroke="none" points="2.07768,5.49974,2.07768,5.56084,13.8104,5.56084,13.8104,5.49974" fill="#ffffff"/>
 <polygon xmlns="http://www.w3.org/2000/svg" stroke-width="0" stroke="none" points="2.07768,5.49974,2.07768,5.56084,13.8104,5.56084,13.8104,5.49974" fill="#ffffff"/>
 <polygon xmlns="http://www.w3.org/2000/svg" stroke-width="0" stroke="none" points="2.07768,5.49974,2.07768,5.56084,13.8104,5.56084,13.8104,5.49974" fill="#ffffff"/>
 <polygon xmlns="http://www.w3.org/2000/svg" stroke-width="0" stroke="none" points="2.07768,5.56084,2.07768,6.53858,11.0606,6.53858,11.0606,6.59968,11.1217,6.59968,11.1217,6.96633,11.0606,6.96633,11.0606,7.21077,10.9995,7.21077,10.9995,7.33298,10.9384,7.33298,10.9384,7.51631,10.8772,7.51631,10.8772,7.63852,10.8161,7.63852,10.8161,7.76074,10.755,7.76074,10.755,7.88296,10.6939,7.88296,10.6939,8.00517,10.6328,8.00517,10.6328,8.12739,10.5717,8.12739,10.5717,8.24961,10.5106,8.24961,10.5106,8.37182,10.4495,8.37182,10.4495,8.49404,10.3884,8.49404,10.3884,8.61625,10.3273,8.61625,10.3273,8.73847,10.2662,8.73847,10.2662,8.86069,10.2051,8.86069,10.2051,8.9218,10.1439,8.9218,10.1439,9.04401,10.0828,9.04401,10.0828,9.10512,10.0217,9.10512,10.0217,9.16623,9.96062,9.16623,9.96062,9.28844,9.89952,9.28844,9.89952,9.34955,9.83841,9.34955,9.83841,9.41066,9.7773,9.41066,9.7773,9.47177,9.71619,9.47177,9.71619,9.53288,9.59398,9.53288,9.59398,9.59399,9.53287,9.59399,9.53287,9.65509,9.47176,9.65509,9.47176,9.7162,9.34954,9.7162,9.34954,9.77731,9.28844,9.77731,9.28844,9.83842,9.10511,9.83842,9.10511,9.89953,8.73846,9.89953,8.73846,9.96063,8.12738,9.96063,8.12738,10.0217,13.8104,10.0217,13.8104,5.56084" fill="#ffffff"/>
 <polygon xmlns="http://www.w3.org/2000/svg" stroke-width="0" stroke="none" points="2.07768,6.53858,2.07768,6.96633,5.01087,6.96633,5.01087,7.02744,5.07197,7.02744,5.07197,7.08855,5.13308,7.08855,5.13308,7.14966,5.19419,7.14966,5.19419,7.21077,5.2553,7.21077,5.2553,7.33298,5.31641,7.33298,5.31641,7.39409,5.37752,7.39409,5.37752,7.4552,5.43862,7.4552,5.43862,7.51631,5.49973,7.51631,5.49973,7.57742,5.56084,7.57742,5.56084,7.63852,5.62195,7.63852,5.62195,7.69963,5.74416,7.69963,5.74416,7.76074,5.80527,7.76074,5.80527,7.82185,5.92749,7.82185,5.92749,7.88296,6.0497,7.88296,6.0497,7.94406,6.17192,7.94406,6.17192,8.00517,6.29414,8.00517,6.29414,8.06628,6.41635,8.06628,6.41635,8.12739,6.59968,8.12739,6.59968,8.1885,6.783,8.1885,6.783,8.24961,6.96633,8.24961,6.96633,8.31071,7.27187,8.31071,7.27187,8.37182,8.43292,8.37182,8.43292,8.31071,8.61625,8.31071,8.61625,8.24961,8.73846,8.24961,8.73846,8.1885,8.86068,8.1885,8.86068,8.12739,8.98289,8.12739,8.98289,8.06628,9.044,8.06628,9.044,8.00517,9.22733,8.00517,9.22733,7.94406,9.34954,7.94406,9.34954,7.88296,9.47176,7.88296,9.47176,7.82185,9.53287,7.82185,9.53287,7.76074,9.65508,7.76074,9.65508,7.69963,9.71619,7.69963,9.71619,7.63852,9.7773,7.63852,9.7773,7.57742,9.89952,7.57742,9.89952,7.51631,9.96062,7.51631,9.96062,7.4552,10.0828,7.4552,10.0828,7.39409,10.1439,7.39409,10.1439,7.33298,10.2051,7.33298,10.2051,7.27187,10.2662,7.27187,10.2662,7.14966,10.3273,7.14966,10.3273,7.08855,10.3884,7.08855,10.3884,7.02744,10.4495,7.02744,10.4495,6.96633,10.5106,6.96633,10.5106,6.90523,10.5717,6.90523,10.5717,6.78301,10.6328,6.78301,10.6328,6.7219,10.6939,6.7219,10.6939,6.66079,10.755,6.66079,10.755,6.59968,10.8161,6.59968,10.8161,6.53858" fill="#ffffff"/>
 <polygon xmlns="http://www.w3.org/2000/svg" stroke-width="0" stroke="none" points="2.07768,6.96633,2.07768,7.02744,2.01657,7.02744,2.01657,8.1885,1.95546,8.1885,1.95546,8.86069,1.89435,8.86069,1.89435,9.96063,1.83324,9.96063,1.83324,10.0217,7.69962,10.0217,7.69962,9.96063,7.08854,9.96063,7.08854,9.89953,6.90522,9.89953,6.90522,9.83842,6.72189,9.83842,6.72189,9.77731,6.59968,9.77731,6.59968,9.7162,6.41635,9.7162,6.41635,9.65509,6.29414,9.65509,6.29414,9.59399,6.23303,9.59399,6.23303,9.53288,6.17192,9.53288,6.17192,9.47177,6.11081,9.47177,6.11081,9.41066,6.0497,9.41066,6.0497,9.34955,5.9886,9.34955,5.9886,9.28844,5.92749,9.28844,5.92749,9.22734,5.86638,9.22734,5.86638,9.10512,5.80527,9.10512,5.80527,9.04401,5.74416,9.04401,5.74416,8.9218,5.68306,8.9218,5.68306,8.86069,5.62195,8.86069,5.62195,8.73847,5.56084,8.73847,5.56084,8.67736,5.49973,8.67736,5.49973,8.55515,5.43862,8.55515,5.43862,8.49404,5.37752,8.49404,5.37752,8.43293,5.31641,8.43293,5.31641,8.31071,5.2553,8.31071,5.2553,8.24961,5.19419,8.24961,5.19419,8.1885,5.13308,8.1885,5.13308,8.12739,5.07197,8.12739,5.07197,8.00517,5.01087,8.00517,5.01087,7.94406,4.94976,7.94406,4.94976,7.88296,4.88865,7.88296,4.88865,7.82185,4.82754,7.82185,4.82754,7.76074,4.76643,7.76074,4.76643,7.69963,4.70533,7.69963,4.70533,7.57742,4.64422,7.57742,4.64422,7.4552,4.58311,7.4552,4.58311,7.21077,4.64422,7.21077,4.64422,7.08855,4.70533,7.08855,4.70533,7.02744,4.76643,7.02744,4.76643,6.96633" fill="#ffffff"/>
 <polygon xmlns="http://www.w3.org/2000/svg" stroke-width="0" stroke="none" points="1.83324,10.0217,1.83324,10.0829,13.8715,10.0829,13.8715,10.0217" fill="#ffffff"/>
 <polygon xmlns="http://www.w3.org/2000/svg" stroke-width="0" stroke="none" points="1.83324,10.0217,1.83324,10.0829,13.8715,10.0829,13.8715,10.0217" fill="#ffffff"/>
 <polygon xmlns="http://www.w3.org/2000/svg" stroke-width="0" stroke="none" points="1.83324,10.0829,1.83324,10.3884,1.89435,10.3884,1.89435,11.0606,7.82184,11.0606,7.82184,11.1217,9.22733,11.1217,9.22733,11.1828,9.28844,11.1828,9.28844,11.305,9.34954,11.305,9.34954,11.5494,9.28844,11.5494,9.28844,12.2216,10.3273,12.2216,10.3273,12.2827,10.5106,12.2827,10.5106,12.3439,10.5717,12.3439,10.5717,12.405,10.6939,12.405,10.6939,12.4661,10.755,12.4661,10.755,12.5883,10.8161,12.5883,10.8161,12.6494,10.8772,12.6494,10.8772,12.7716,10.9384,12.7716,10.9384,12.8327,10.9995,12.8327,10.9995,13.016,11.0606,13.016,11.0606,13.1383,10.9995,13.1383,10.9995,13.6271,10.9384,13.6271,10.9384,13.7493,10.8772,13.7493,10.8772,13.8716,10.755,13.8716,10.755,13.9327,11.1217,13.9327,11.1217,11.4272,11.0606,11.4272,11.0606,11.2439,10.9995,11.2439,10.9995,11.0606,11.0606,11.0606,11.0606,10.9384,11.1828,10.9384,11.1828,10.8773,11.4272,10.8773,11.4272,10.8161,11.6717,10.8161,11.6717,10.755,12.0383,10.755,12.0383,10.6939,12.8938,10.6939,12.8938,10.6328,13.3216,10.6328,13.3216,10.5717,13.6882,10.5717,13.6882,10.5106,13.8715,10.5106,13.8715,10.0829" fill="#ffffff"/>
 <polygon xmlns="http://www.w3.org/2000/svg" stroke-width="0" stroke="none" points="1.89435,11.0606,1.89435,11.1217,4.03314,11.1217,4.03314,11.1828,4.09424,11.1828,4.09424,12.4661,5.2553,12.4661,5.2553,12.5272,5.56084,12.5272,5.56084,12.5883,5.68306,12.5883,5.68306,12.6494,5.80527,12.6494,5.80527,12.7716,5.86638,12.7716,5.86638,12.8938,5.92749,12.8938,5.92749,13.2605,5.86638,13.2605,5.86638,13.4438,5.80527,13.4438,5.80527,13.6271,5.74416,13.6271,5.74416,13.7493,5.68306,13.7493,5.68306,13.8105,5.62195,13.8105,5.62195,13.8716,5.56084,13.8716,5.56084,13.9327,5.49973,13.9327,5.49973,13.9938,6.11081,13.9938,6.11081,13.1383,6.0497,13.1383,6.0497,11.4883,5.9886,11.4883,5.9886,11.3661,6.0497,11.3661,6.0497,11.2439,6.11081,11.2439,6.11081,11.1828,6.29414,11.1828,6.29414,11.1217,7.5163,11.1217,7.5163,11.0606" fill="#ffffff"/>
 <polygon xmlns="http://www.w3.org/2000/svg" stroke-width="0" stroke="none" points="9.28844,12.2216,9.28844,12.4661,9.22733,12.4661,9.22733,13.3827,9.16622,13.3827,9.16622,13.566,9.10511,13.566,9.10511,13.8716,9.044,13.8716,9.044,13.9327,10.1439,13.9327,10.1439,13.8716,10.0217,13.8716,10.0217,13.8105,9.89952,13.8105,9.89952,13.7493,9.83841,13.7493,9.83841,13.6882,9.7773,13.6882,9.7773,13.6271,9.71619,13.6271,9.71619,13.566,9.65508,13.566,9.65508,13.4438,9.59398,13.4438,9.59398,13.3827,9.53287,13.3827,9.53287,12.7716,9.59398,12.7716,9.59398,12.5883,9.65508,12.5883,9.65508,12.5272,9.71619,12.5272,9.71619,12.4661,9.7773,12.4661,9.7773,12.3439,9.89952,12.3439,9.89952,12.2827,10.0217,12.2827,10.0217,12.2216" fill="#ffffff"/>
 <polygon xmlns="http://www.w3.org/2000/svg" stroke-width="0" stroke="none" points="4.09424,12.4661,4.09424,13.9938,4.94976,13.9938,4.94976,13.9327,4.82754,13.9327,4.82754,13.8716,4.70533,13.8716,4.70533,13.8105,4.64422,13.8105,4.64422,13.7493,4.58311,13.7493,4.58311,13.6882,4.46089,13.6882,4.46089,13.6271,4.39979,13.6271,4.39979,13.5049,4.33868,13.5049,4.33868,12.9549,4.39979,12.9549,4.39979,12.7716,4.46089,12.7716,4.46089,12.7105,4.522,12.7105,4.522,12.6494,4.58311,12.6494,4.58311,12.5883,4.64422,12.5883,4.64422,12.5272,4.76643,12.5272,4.76643,12.4661" fill="#ffffff"/>
 <polygon xmlns="http://www.w3.org/2000/svg" stroke-width="0" stroke="none" points="9.044,13.9327,9.044,13.9938,11.1217,13.9938,11.1217,13.9327" fill="#ffffff"/>
 <polygon xmlns="http://www.w3.org/2000/svg" stroke-width="0" stroke="none" points="9.044,13.9327,9.044,13.9938,11.1217,13.9938,11.1217,13.9327" fill="#ffffff"/>
 <polygon xmlns="http://www.w3.org/2000/svg" stroke-width="0" stroke="none" points="4.09424,13.9938,4.09424,14.0549,6.11081,14.0549,6.11081,13.9938" fill="#ffffff"/>
 <polygon xmlns="http://www.w3.org/2000/svg" stroke-width="0" stroke="none" points="4.09424,13.9938,4.09424,14.0549,6.11081,14.0549,6.11081,13.9938" fill="#ffffff"/>
 <polygon xmlns="http://www.w3.org/2000/svg" stroke-width="0" stroke="none" points="9.044,13.9938,9.044,14.1771,8.98289,14.1771,8.98289,14.6049,9.10511,14.6049,9.10511,14.5437,9.53287,14.5437,9.53287,14.4826,10.2662,14.4826,10.2662,14.4215,11.1828,14.4215,11.1828,13.9938" fill="#ffffff"/>
 <polygon xmlns="http://www.w3.org/2000/svg" stroke-width="0" stroke="none" points="4.09424,14.0549,4.09424,14.3604,5.68306,14.3604,5.68306,14.4215,6.0497,14.4215,6.0497,14.4826,6.11081,14.4826,6.11081,14.0549" fill="#ffffff"/>
</g>
</g></g><g partID='10390071'><g transform='translate(45.8292,109.868)' ><g transform='matrix(0,-1,1,0,0,0)'  ><g xmlns="http://www.w3.org/2000/svg" id="silkscreen">
 <line xmlns="http://www.w3.org/2000/svg" stroke-width="0.72" stroke="white" y1="1.44" y2="15.84" x1="1.44" x2="1.44"/>
 <line xmlns="http://www.w3.org/2000/svg" stroke-width="0.72" stroke="white" y1="15.84" y2="15.84" x1="1.44" x2="8.64"/>
 <line xmlns="http://www.w3.org/2000/svg" stroke-width="0.72" stroke="white" y1="15.84" y2="1.44" x1="8.64" x2="8.64"/>
 <line xmlns="http://www.w3.org/2000/svg" stroke-width="0.72" stroke="white" y1="1.44" y2="1.44" x1="8.64" x2="1.44"/>
 <line xmlns="http://www.w3.org/2000/svg" stroke-width="0.36" stroke="white" y1="3.96" y2="1.44" x1="1.44" x2="3.96"/>
 <!-- 120 -->
</g>
</g></g></g><g partID='10390161'><g transform='translate(12.0188,109.824)' ><g transform='matrix(0,-1,1,0,0,0)'  ><g xmlns="http://www.w3.org/2000/svg" id="silkscreen">
 <line xmlns="http://www.w3.org/2000/svg" stroke-width="0.72" stroke="white" y1="1.44" y2="15.84" x1="1.44" x2="1.44"/>
 <line xmlns="http://www.w3.org/2000/svg" stroke-width="0.72" stroke="white" y1="15.84" y2="15.84" x1="1.44" x2="8.64"/>
 <line xmlns="http://www.w3.org/2000/svg" stroke-width="0.72" stroke="white" y1="15.84" y2="1.44" x1="8.64" x2="8.64"/>
 <line xmlns="http://www.w3.org/2000/svg" stroke-width="0.72" stroke="white" y1="1.44" y2="1.44" x1="8.64" x2="1.44"/>
 <line xmlns="http://www.w3.org/2000/svg" stroke-width="0.36" stroke="white" y1="3.96" y2="1.44" x1="1.44" x2="3.96"/>
 <!-- 120 -->
</g>
</g></g></g><g partID='10392521'><g transform='translate(63.082,33.7356)' ><g transform='matrix(0,1,-1,0,0,0)'  ><g xmlns="http://www.w3.org/2000/svg" id="silkscreen">
 <line xmlns="http://www.w3.org/2000/svg" stroke-width="0.72" stroke="white" y1="1.44" y2="15.84" x1="1.44" x2="1.44"/>
 <line xmlns="http://www.w3.org/2000/svg" stroke-width="0.72" stroke="white" y1="15.84" y2="15.84" x1="1.44" x2="8.64"/>
 <line xmlns="http://www.w3.org/2000/svg" stroke-width="0.72" stroke="white" y1="15.84" y2="1.44" x1="8.64" x2="8.64"/>
 <line xmlns="http://www.w3.org/2000/svg" stroke-width="0.72" stroke="white" y1="1.44" y2="1.44" x1="8.64" x2="1.44"/>
 <line xmlns="http://www.w3.org/2000/svg" stroke-width="0.36" stroke="white" y1="3.96" y2="1.44" x1="1.44" x2="3.96"/>
 <!-- 120 -->
</g>
</g></g></g><g partID='10392791'><g transform='translate(30.3905,34.09)' ><g transform='matrix(0,1,-1,0,0,0)'  ><g xmlns="http://www.w3.org/2000/svg" id="silkscreen">
 <line xmlns="http://www.w3.org/2000/svg" stroke-width="0.72" stroke="white" y1="1.44" y2="15.84" x1="1.44" x2="1.44"/>
 <line xmlns="http://www.w3.org/2000/svg" stroke-width="0.72" stroke="white" y1="15.84" y2="15.84" x1="1.44" x2="8.64"/>
 <line xmlns="http://www.w3.org/2000/svg" stroke-width="0.72" stroke="white" y1="15.84" y2="1.44" x1="8.64" x2="8.64"/>
 <line xmlns="http://www.w3.org/2000/svg" stroke-width="0.72" stroke="white" y1="1.44" y2="1.44" x1="8.64" x2="1.44"/>
 <line xmlns="http://www.w3.org/2000/svg" stroke-width="0.36" stroke="white" y1="3.96" y2="1.44" x1="1.44" x2="3.96"/>
 <!-- 120 -->
</g>
</g></g></g><g partID='10504001'><g transform='translate(45.2044,89.1589)' ><g transform='matrix(1,0,0,1,0,0)'  ><g xmlns="http://www.w3.org/2000/svg" id="silkscreen">
 <rect xmlns="http://www.w3.org/2000/svg" stroke-width="0.283465" stroke-opacity="1" id="silkscreen" stroke="#ffffff" fill="none" x="0.141732" height="5.10236" y="0.141732" width="10.6299"/>
</g>
</g></g></g><g partID='18314491'><g transform='translate(55.1324,73.7311)' ><g transform='matrix(0,1,-1,0,0,0)'  ><g  id="silkscreen">
 <rect  stroke-width="0.283465" stroke-opacity="1" id="rect7" stroke="#ffffff" fill="none" x="0.141732" height="5.10236" y="0.141732" width="10.6299"/>
 <g transform="scale(28.222222,28.222222)">
  <path  stroke-width="0.010044" stroke-opacity="1" d="m0.17577,0.020088,0,0.15066" id="path2825" stroke="#ffffff" fill="none" style="stroke-linecap:butt;stroke-linejoin:miter;stroke-miterlimit:4;stroke-dasharray:none"/>
 </g>
</g>
</g></g></g><g partID='10504491'><g transform='translate(31.3572,89.0741)' ><g transform='matrix(1,0,0,1,0,0)'  ><g  id="silkscreen">
 <rect  stroke-width="0.283465" stroke-opacity="1" id="rect7" stroke="#ffffff" fill="none" x="0.141732" height="5.10236" y="0.141732" width="10.6299"/>
 <g transform="scale(28.222222,28.222222)">
  <path  stroke-width="0.010044" stroke-opacity="1" d="m0.17577,0.020088,0,0.15066" id="path2825" stroke="#ffffff" fill="none" style="stroke-linecap:butt;stroke-linejoin:miter;stroke-miterlimit:4;stroke-dasharray:none"/>
 </g>
</g>
</g></g></g><g partID='18313961'><g transform='translate(24.782,87.7533)' ><g transform='matrix(0,-1,1,0,0,0)'  ><g xmlns="http://www.w3.org/2000/svg" id="silkscreen">
 <line xmlns="http://www.w3.org/2000/svg" stroke-width="0.72" stroke="white" y1="1.44" y2="23.04" x1="1.44" x2="1.44"/>
 <line xmlns="http://www.w3.org/2000/svg" stroke-width="0.72" stroke="white" y1="23.04" y2="23.04" x1="1.44" x2="8.64"/>
 <line xmlns="http://www.w3.org/2000/svg" stroke-width="0.72" stroke="white" y1="23.04" y2="1.44" x1="8.64" x2="8.64"/>
 <line xmlns="http://www.w3.org/2000/svg" stroke-width="0.72" stroke="white" y1="1.44" y2="1.44" x1="8.64" x2="1.44"/>
 <line xmlns="http://www.w3.org/2000/svg" stroke-width="0.36" stroke="white" y1="3.96" y2="1.44" x1="1.44" x2="3.96"/>
 <!-- 120 -->
</g>
</g></g></g><g partID='854175380'><g transform='translate(24.6244,65.5429)' ><g xmlns="http://www.w3.org/2000/svg" id="silkscreen">
 <text xmlns="http://www.w3.org/2000/svg" stroke-width="0" text-anchor="middle" font-size="3.05617" id="label" fill="#000000" x="6.11233" y="2.75055" font-family="OCRA" xml:space="preserve" xmlns:xml="http://www.w3.org/XML/1998/namespace">r0.2</text>
</g>
</g></g><g partID='18317810'><g transform='translate(19.742,59.1933)' ><g xmlns="http://www.w3.org/2000/svg" id="silkscreen">
 <text xmlns="http://www.w3.org/2000/svg" stroke-width="0" text-anchor="middle" font-size="5.47693" id="label" fill="#ffffff" x="19.1692" y="4.92923" font-family="OCRA" xml:space="preserve" xmlns:xml="http://www.w3.org/XML/1998/namespace">DS18B20</text>
</g>
</g></g><g partID='10504490' id='partLabel'><g transform='translate(18.6732,89.9429)' ><g font-size='5' font-style='normal' font-weight='normal' fill='#000000' font-family="'OCRA'" id='silkscreenLabel' fill-opacity='1' stroke='none' ><text x='0' y='3.75'>PWR</text></g></g></g><g partID='10504000' id='partLabel'><g transform='translate(56.43,92.1885)' ><g transform='matrix(1,0,0,1,0,0)'  ><g font-size='3' font-style='normal' font-weight='normal' fill='#000000' font-family="'OCRA'" id='silkscreenLabel' fill-opacity='1' stroke='none' ><text x='0' y='2.25'>R2</text></g></g></g></g><g partID='10390070' id='partLabel'><g transform='translate(59.9628,112.934)' ><g transform='matrix(-1,0,0,-1,0,0)'  ><g font-size='5' font-style='normal' font-weight='normal' fill='#000000' font-family="'OCRA'" id='silkscreenLabel' fill-opacity='1' stroke='none' ><text x='0' y='3.75'>+ -</text></g></g></g></g><g partID='10390160' id='partLabel'><g transform='translate(15.3524,109.024)' ><g font-size='5' font-style='normal' font-weight='normal' fill='#000000' font-family="'OCRA'" id='silkscreenLabel' fill-opacity='1' stroke='none' ><text x='0' y='3.75'>o i</text></g></g></g><g partID='10392520' id='partLabel'><g transform='translate(59.5668,48.3997)' ><g transform='matrix(-1,0,0,-1,0,0)'  ><g font-size='5' font-style='normal' font-weight='normal' fill='#000000' font-family="'OCRA'" id='silkscreenLabel' fill-opacity='1' stroke='none' ><text x='0' y='3.75'>+ -</text></g></g></g></g><g partID='10392790' id='partLabel'><g transform='translate(15.895,44.4717)' ><g font-size='5' font-style='normal' font-weight='normal' fill='#000000' font-family="'OCRA'" id='silkscreenLabel' fill-opacity='1' stroke='none' ><text x='0' y='3.75'>i o</text></g></g></g><g partID='18313960' id='partLabel'><g transform='translate(23.182,54.1533)' ><g font-size='5' font-style='normal' font-weight='normal' fill='#000000' font-family="'OCRA'" id='silkscreenLabel' fill-opacity='1' stroke='none' ><text x='0' y='3.75'>Temperature</text></g></g></g></svg>